HIERARCHY
ROOT Hips
{
	OFFSET 0.00000 0.00000 0.00000
	CHANNELS 6 Xposition Yposition Zposition Yrotation Zrotation Xrotation 
	JOINT Lumbar
	{
		OFFSET 0 0 0
		CHANNELS 3 Zrotation Xrotation Yrotation
		JOINT Neck
		{
			OFFSET 0.00 0.2701 0.00
			CHANNELS 3 Zrotation Xrotation Yrotation
			End Site
			{
				OFFSET 0.00 0.1379 0.00
			}
		}
		JOINT RightShoulder
		{
			OFFSET 0.0119 0.2289 0.1181
			CHANNELS 3 Zrotation Xrotation Yrotation
			JOINT RightElbow
			{
				OFFSET 0.00 -0.1475 0.00
				CHANNELS 2 Zrotation Yrotation
				JOINT RightWrist
				{
					OFFSET 0.00 -0.1605 0.00
					CHANNELS 2 Zrotation Xrotation
					End Site
					{
						OFFSET 0.0040 -0.1068 0.0006
					}
				}
			}
		}
		JOINT LeftShoulder
		{
			OFFSET 0.0119 0.2289 -0.1181
			CHANNELS 3 Zrotation Xrotation Yrotation
			JOINT LeftElbow
			{
				OFFSET 0.00 -0.1475 0.00
				CHANNELS 2 Zrotation Yrotation
				JOINT LeftWrist
				{
					OFFSET 0.00 -0.1605 0.00
					CHANNELS 2 Zrotation Xrotation
					End Site
					{
						OFFSET 0.0040 -0.1068 -0.0006
					}
				}
			}
		}
	}
	JOINT RightHip
	{
		OFFSET 0.0316 -0.0424 0.0458
		CHANNELS 3 Zrotation Xrotation Yrotation
		JOINT RightKnee
		{
			OFFSET 0.00 -0.2438 0.00
			CHANNELS 1 Zrotation
			JOINT RightAnkle
			{
				OFFSET 0.00 -0.2449 0.00
				CHANNELS 3 Zrotation Xrotation Yrotation
				End Site
				{
					OFFSET 0.1237 -0.0542 0.0051
				}
			}
		}
	}
	JOINT LeftHip
	{
		OFFSET 0.0316 -0.0424 -0.0458
		CHANNELS 3 Zrotation Xrotation Yrotation
		JOINT LeftKnee
		{
			OFFSET 0.00 -0.2438 0.00
			CHANNELS 1 Zrotation
			JOINT LeftAnkle
			{
				OFFSET 0.00 -0.2449 0.00
				CHANNELS 3 Zrotation Xrotation Yrotation
				End Site
				{
					OFFSET 0.1237 -0.0542 -0.0051
				}
			}
		}
	}
}
MOTION
Frames: 25
Frame Time: 0.02
0.00435 -0.00034 0.00012 -179.87559 -27.81088 -0.10911 39.90487 -0.32184 -8.13843 -10.89706 4.31969 -1.079 -10.5934 -5.91664 -34.459 20.2852 145.35456 19.63439 10.66518 -21.81308 6.54982 1.29821 29.85177 -104.76409 15.07682 -2.05127 33.34233 -2.0222 -2.63279 -21.32112 -6.49228 -3.41275 -3.83926 34.7555 5.19389 11.1564 -25.4206 -6.37638 2.22725 3.27772
0.00371 -0.00028 2e-05 -179.81837 -27.72343 -0.14077 40.04494 -0.33416 -8.26352 -11.06856 4.32004 -1.08078 -11.21795 -6.03207 -33.20544 20.32008 140.19198 18.3624 9.77398 -22.05555 6.55359 1.32737 29.90122 -104.8713 15.17527 -2.0596 33.0513 -2.19124 -3.80335 -21.30263 -6.42197 -3.32197 -3.79647 34.57623 5.19471 10.93002 -25.38202 -6.38151 2.23678 3.2855
0.00307 -0.00023 -8e-05 -179.76123 -27.63611 -0.17233 40.1848 -0.3465 -8.38825 -11.23985 4.32042 -1.08256 -11.84156 -6.14709 -31.95557 20.35539 135.04612 17.09474 8.88561 -22.29746 6.55732 1.3566 29.95067 -104.97833 15.27354 -2.06792 32.7608 -2.35966 -4.96991 -21.28418 -6.35186 -3.23153 -3.75384 34.39717 5.19554 10.70432 -25.34351 -6.38661 2.24628 3.29324
0.00244 -0.00017 -0.00018 -179.70418 -27.54891 -0.20389 40.32448 -0.3588 -8.51297 -11.41086 4.32077 -1.08434 -12.46434 -6.26217 -30.70579 20.39024 129.8993 15.82664 7.99713 -22.53921 6.56107 1.38569 29.99999 -105.08522 15.3717 -2.07623 32.47062 -2.52817 -6.13677 -21.26575 -6.28176 -3.14104 -3.71119 34.21841 5.19636 10.47861 -25.30503 -6.39171 2.25579 3.30099
0.0018 -0.00011 -0.00028 -179.64708 -27.46161 -0.23558 40.46429 -0.37105 -8.63802 -11.58203 4.32109 -1.08612 -13.0877 -6.37765 -29.45253 20.42453 124.73619 14.55432 7.1059 -22.78148 6.56487 1.41463 30.04928 -105.19225 15.47002 -2.08456 32.18 -2.69734 -7.30785 -21.24729 -6.21146 -3.05016 -3.66836 34.03952 5.19718 10.25229 -25.26651 -6.39685 2.26532 3.30876
0.00116 -6e-05 -0.00038 -179.58986 -27.37425 -0.26685 40.60423 -0.38357 -8.76207 -11.75356 4.32162 -1.0879 -13.71181 -6.49165 -28.20995 20.46201 119.62732 13.29667 6.22364 -23.02263 6.56845 1.44447 30.09906 -105.29928 15.5682 -2.09285 31.88978 -2.86417 -8.46489 -21.22887 -6.14175 -2.96067 -3.62618 33.86009 5.19802 10.02795 -25.22803 -6.40187 2.27475 3.31646
0.00053 0 -0.00048 -179.53297 -27.28717 -0.29892 40.74376 -0.39554 -8.88804 -11.92405 4.32168 -1.08968 -14.33365 -6.60863 -26.94694 20.49286 114.4133 12.0103 5.32407 -23.26571 6.57247 1.47248 30.14775 -105.40614 15.66648 -2.10122 31.59918 -3.0355 -9.64865 -21.21036 -6.07092 -2.8685 -3.58274 33.68206 5.19879 9.79973 -25.18947 -6.40712 2.28439 3.32431
-0.0001 6e-05 -0.00058 -179.47571 -27.19971 -0.33025 40.88365 -0.40804 -9.01216 -12.09571 4.32225 -1.09146 -14.95773 -6.7226 -25.7033 20.53013 109.29922 10.75147 4.44089 -23.50709 6.5761 1.50217 30.19756 -105.51325 15.76478 -2.10951 31.30873 -3.20275 -10.80823 -21.19199 -6.00113 -2.77878 -3.54045 33.50255 5.1997 9.57534 -25.15104 -6.41215 2.29381 3.332
-0.00075 0.00011 -0.00069 -179.41821 -27.11219 -0.36074 41.02416 -0.42109 -9.13437 -12.26813 4.32314 -1.09323 -15.58439 -6.834 -24.48069 20.57417 104.29347 9.52165 3.57571 -23.74622 6.57919 1.53399 30.2483 -105.62037 15.86274 -2.11773 31.01904 -3.3648 -11.93682 -21.17358 -5.93257 -2.69208 -3.49958 33.32182 5.2005 9.35452 -25.11255 -6.41696 2.30308 3.33955
-0.00134 0.00018 -0.00078 -179.36273 -27.02626 -0.39623 41.16165 -0.43066 -9.26863 -12.43416 4.3213 -1.09503 -16.19575 -6.96353 -23.12908 20.57602 98.62273 8.1109 2.60083 -23.99779 6.58519 1.55377 30.29238 -105.72655 15.96154 -2.12641 30.72674 -3.5561 -13.23943 -21.15475 -5.85682 -2.58811 -3.4506 33.14987 5.20109 9.1098 -25.07376 -6.42316 2.31357 3.34808
-0.00206 0.00022 -0.00089 -179.3026 -26.9362 -0.42105 41.30513 -0.44777 -9.37679 -12.61493 4.32577 -1.09677 -16.83955 -7.05264 -22.05486 20.66889 94.38191 7.09089 1.86134 -24.2234 6.58517 1.5988 30.35132 -105.83527 16.05928 -2.13411 30.43889 -3.68613 -14.17762 -21.13724 -5.7963 -2.52051 -3.4187 32.95835 5.20265 8.9177 -25.03599 -6.42636 2.32125 3.35443
-0.0031 0.00018 -0.00102 -179.23287 -26.84071 -0.41724 41.46883 -0.48413 -9.4179 -12.82661 4.3438 -1.09826 -17.56985 -7.04979 -21.70282 20.9936 93.86674 7.07404 1.73953 -24.37464 6.5676 1.71522 30.4442 -105.94737 16.14917 -2.13923 30.17175 -3.64252 -14.08254 -21.11947 -5.77762 -2.55431 -3.43448 32.72063 5.20231 8.85211 -24.99781 -6.42164 2.32317 3.35578
-0.00428 0.00011 -0.00116 -179.15802 -26.7399 -0.40259 41.63805 -0.52825 -9.43167 -13.05511 4.36915 -1.09968 -18.33134 -7.0044 -21.63422 21.41009 94.81362 7.45859 1.85786 -24.50023 6.54421 1.85676 30.55276 -106.0633 16.23947 -2.14339 29.9075 -3.53832 -13.62686 -21.10357 -5.77433 -2.62435 -3.46729 32.46165 5.20355 8.84184 -24.96115 -6.41383 2.322 3.35481
-0.00541 5e-05 -0.0013 -179.08328 -26.63773 -0.3925 41.80206 -0.56986 -9.45536 -13.28183 4.39326 -1.10115 -19.08264 -6.96411 -21.46433 21.80004 95.23424 7.70935 1.8866 -24.63983 6.52412 1.98525 30.6593 -106.1791 16.33216 -2.14788 29.63638 -3.46552 -13.35903 -21.08952 -5.76382 -2.67672 -3.49178 32.20775 5.20738 8.81903 -24.92605 -6.40725 2.32082 3.35418
-0.00647 0 -0.00143 -179.01734 -26.55175 -0.38395 41.97672 -0.60752 -9.49079 -13.48285 4.40746 -1.10253 -19.82492 -6.97737 -21.18836 22.13825 95.11769 7.77106 1.83932 -24.77016 6.50113 2.12007 30.74647 -106.28565 16.41179 -2.15269 29.38875 -3.37661 -12.99276 -21.06472 -5.75384 -2.73414 -3.51869 31.97398 5.19832 8.74661 -24.88192 -6.40144 2.32519 3.35633
-0.00772 -8e-05 -0.00157 -178.93252 -26.43049 -0.36958 42.13144 -0.65483 -9.49374 -13.7426 4.44541 -1.10409 -20.58367 -6.87708 -21.18856 22.59079 96.41232 8.3023 1.99977 -24.91282 6.48296 2.24845 30.87497 -106.41546 16.52144 -2.15676 29.09285 -3.30652 -12.74168 -21.06194 -5.74695 -2.78974 -3.54468 31.69223 5.21516 8.78627 -24.85635 -6.39325 2.31782 3.35243
-0.00944 -0.00024 -0.00176 -178.79215 -26.21792 -0.34245 42.2206 -0.72975 -9.42726 -14.14678 4.53563 -1.10607 -21.4568 -6.40442 -21.99858 23.46809 101.72657 10.19976 2.74333 -25.10326 6.47803 2.34601 31.13946 -106.58605 16.69138 -2.15866 28.66658 -3.30709 -12.93685 -21.12727 -5.74004 -2.83014 -3.56296 31.29524 5.31416 9.15861 -24.88707 -6.37988 2.2742 3.33008
-0.01135 -0.00044 -0.00196 -178.63458 -25.97068 -0.30982 42.29043 -0.81311 -9.32663 -14.60976 4.6518 -1.1083 -22.32676 -5.83164 -23.06533 24.43388 108.33473 12.52664 3.67787 -25.30536 6.47832 2.43751 31.44173 -106.78688 16.89619 -2.16049 28.19336 -3.32826 -13.25379 -21.2137 -5.7365 -2.86754 -3.57982 30.85078 5.43699 9.63471 -24.93556 -6.36422 2.2198 3.30219
-0.01321 -0.00062 -0.00215 -178.48698 -25.73418 -0.27913 42.37609 -0.89134 -9.23259 -15.05768 4.76344 -1.11038 -23.15354 -5.35041 -23.92472 25.2714 114.01648 14.5438 4.47629 -25.49757 6.47738 2.53627 31.70792 -106.9851 17.0992 -2.16185 27.73618 -3.33715 -13.48796 -21.28483 -5.73473 -2.90732 -3.59806 30.41718 5.54184 10.03948 -24.97211 -6.34907 2.17326 3.27833
-0.01496 -0.0008 -0.00236 -178.32699 -25.51232 -0.24998 42.43538 -0.97723 -9.17479 -15.46633 4.84405 -1.11236 -24.18774 -4.6743 -25.13397 26.47903 121.11865 17.04942 5.47894 -25.70932 6.47191 2.61681 32.04825 -107.12509 17.24103 -2.16292 27.29154 -3.35517 -13.82227 -21.3783 -5.72001 -2.94467 -3.61413 30.0185 5.67742 10.54919 -25.0243 -6.33566 2.11385 3.24789
-0.01695 -0.001 -0.00252 -178.19273 -25.25978 -0.21702 42.54091 -1.04666 -9.03438 -15.95874 4.99615 -1.11493 -24.76626 -4.37959 -25.72558 26.94168 125.62481 18.64598 6.114 -25.88215 6.47655 2.73361 32.25076 -107.40774 17.52095 -2.16756 26.82204 -3.36124 -13.98547 -21.43254 -5.73226 -2.98514 -3.63375 29.54811 5.75402 10.86307 -25.04905 -6.31861 2.07906 3.23003
-0.01979 -0.00124 -0.00258 -178.09995 -24.86286 -0.17005 42.81207 -1.08964 -8.66916 -16.7684 5.33231 -1.1164 -24.27939 -5.17425 -24.06892 25.27345 121.95539 17.51699 5.54734 -25.95507 6.5156 2.94703 31.99484 -107.94281 18.1488 -2.15477 26.19084 -3.31723 -13.61159 -21.35608 -5.8234 -3.04177 -3.66718 28.78882 5.66773 10.62296 -24.98585 -6.28766 2.11188 3.24689
-0.02282 -0.00149 -0.00257 -178.03997 -24.44906 -0.12035 43.12335 -1.11207 -8.22324 -17.64117 5.74075 -1.11894 -23.29835 -6.35422 -21.85755 22.86261 115.71879 15.4711 4.62547 -25.98586 6.56469 3.19492 31.61079 -108.63681 18.91595 -2.14929 25.55708 -3.26271 -13.06721 -21.24442 -5.94064 -3.10041 -3.70358 27.97844 5.52059 10.18137 -24.89595 -6.25388 2.17022 3.27678
-0.0256 -0.00172 -0.00257 -177.98716 -24.08765 -0.07517 43.3955 -1.1297 -7.81746 -18.41954 6.12075 -1.12278 -22.41697 -7.35036 -20.22927 20.82426 111.14299 13.92261 3.96135 -26.03025 6.60226 3.43402 31.3314 -109.35692 19.63957 -2.16015 24.99136 -3.22165 -12.62861 -21.15786 -6.0422 -3.15321 -3.73601 27.25854 5.39695 9.82158 -24.82333 -6.22442 2.21912 3.30174
-0.0291 -0.00203 -0.00268 -177.84063 -23.53606 -0.01611 43.75865 -1.20617 -7.39507 -19.47876 6.48329 -1.11919 -22.06146 -8.37989 -17.26384 18.63747 104.65654 12.07238 2.91213 -26.10158 6.6634 3.65632 30.86083 -109.69832 20.29369 -2.09374 24.13622 -3.14601 -12.08447 -21.02621 -6.15938 -3.22583 -3.779 26.25224 5.28997 9.49957 -24.72933 -6.18242 2.25934 3.32272
